NotoSerif-Light.ufo
<glyph name="uni0191" format="2">
  <advance width="659"/>
  <unicode hex="0191"/>
  <anchor x="126" y="-10" name="bottom"/>
  <anchor x="384" y="714" name="top"/>
  <anchor x="643" y="714" name="topright"/>
  <outline>
    <contour>
      <point x="126" y="-10" type="curve" smooth="yes"/>
      <point x="235" y="-10"/>
      <point x="286" y="63"/>
      <point x="286" y="191" type="curve" smooth="yes"/>
      <point x="286" y="358" type="line"/>
      <point x="532" y="358" type="line"/>
      <point x="532" y="383" type="line"/>
      <point x="286" y="383" type="line"/>
      <point x="286" y="689" type="line"/>
      <point x="525" y="689" type="line" smooth="yes"/>
      <point x="581" y="689"/>
      <point x="581" y="669"/>
      <point x="584" y="606" type="curve" smooth="yes"/>
      <point x="586" y="551" type="line"/>
      <point x="606" y="551" type="line"/>
      <point x="601" y="714" type="line"/>
      <point x="159" y="714" type="line"/>
      <point x="159" y="694" type="line"/>
      <point x="201" y="694" type="line" smooth="yes"/>
      <point x="252" y="694"/>
      <point x="258" y="683"/>
      <point x="258" y="606" type="curve" smooth="yes"/>
      <point x="258" y="192" type="line" smooth="yes"/>
      <point x="258" y="80"/>
      <point x="223" y="15"/>
      <point x="126" y="15" type="curve" smooth="yes"/>
      <point x="38" y="15"/>
      <point x="9" y="56"/>
      <point x="9" y="152" type="curve"/>
      <point x="-5" y="152"/>
      <point x="-12" y="138"/>
      <point x="-12" y="110" type="curve" smooth="yes"/>
      <point x="-12" y="45"/>
      <point x="21" y="-10"/>
    </contour>
  </outline>
</glyph>
<glyph name="uni023C" format="2">
  <advance width="448"/>
  <unicode hex="023C"/>
  <anchor x="224" y="-207" name="bottom"/>
  <anchor x="224" y="714" name="top"/>
  <anchor x="428" y="536" name="topright"/>
  <outline>
    <contour>
      <point x="143" y="-207" type="line"/>
      <point x="171" y="-207" type="line"/>
      <point x="376" y="714" type="line"/>
      <point x="348" y="714" type="line"/>
    </contour>
    <component base="c"/>
  </outline>
</glyph>
<glyph name="uni023D" format="2">
  <advance width="583"/>
  <unicode hex="023D"/>
  <anchor x="292" y="0" name="bottom"/>
  <anchor x="292" y="714" name="top"/>
  <anchor x="292" y="357" name="center"/>
  <anchor x="563" y="714" name="topright"/>
  <outline>
    <contour>
      <point x="50" y="365" type="line"/>
      <point x="303" y="365" type="line"/>
      <point x="303" y="390" type="line"/>
      <point x="50" y="390" type="line"/>
    </contour>
    <component base="L"/>
  </outline>
</glyph>
<glyph name="uni0246" format="2">
  <advance width="585"/>
  <unicode hex="0246"/>
  <anchor x="293" y="0" name="bottom"/>
  <anchor x="293" y="714" name="top"/>
  <anchor x="565" y="714" name="topright"/>
  <outline>
    <contour>
      <point x="179" y="-58" type="line"/>
      <point x="207" y="-58" type="line"/>
      <point x="462" y="760" type="line"/>
      <point x="434" y="760" type="line"/>
    </contour>
    <component base="E"/>
  </outline>
</glyph>
<glyph name="uni024C" format="2">
  <advance width="592"/>
  <unicode hex="024C"/>
  <anchor x="296" y="0" name="bottom"/>
  <anchor x="296" y="714" name="top"/>
  <anchor x="572" y="714" name="topright"/>
  <outline>
    <contour>
      <point x="56" y="321" type="line"/>
      <point x="159" y="321" type="line"/>
      <point x="159" y="346" type="line"/>
      <point x="56" y="346" type="line"/>
    </contour>
    <component base="R"/>
  </outline>
</glyph>
<glyph name="uni024D" format="2">
  <advance width="405"/>
  <unicode hex="024D"/>
  <anchor x="203" y="0" name="bottom"/>
  <anchor x="203" y="536" name="top"/>
  <anchor x="385" y="536" name="topright"/>
  <outline>
    <contour>
      <point x="42" y="275" type="line"/>
      <point x="313" y="275" type="line"/>
      <point x="313" y="300" type="line"/>
      <point x="42" y="300" type="line"/>
    </contour>
    <component base="r"/>
  </outline>
</glyph>
<glyph name="uni024E" format="2">
  <advance width="539"/>
  <unicode hex="024E"/>
  <anchor x="270" y="0" name="bottom"/>
  <anchor x="270" y="714" name="top"/>
  <anchor x="519" y="714" name="topright"/>
  <outline>
    <contour>
      <point x="-5" y="535" type="line"/>
      <point x="544" y="535" type="line"/>
      <point x="544" y="560" type="line"/>
      <point x="-5" y="560" type="line"/>
    </contour>
    <component base="Y"/>
  </outline>
</glyph>
<glyph name="uni024F" format="2">
  <advance width="547"/>
  <unicode hex="024F"/>
  <anchor x="274" y="-240" name="bottom"/>
  <anchor x="274" y="536" name="top"/>
  <anchor x="537" y="536" name="topright"/>
  <outline>
    <contour>
      <point x="14" y="315" type="line"/>
      <point x="537" y="315" type="line"/>
      <point x="537" y="340" type="line"/>
      <point x="14" y="340" type="line"/>
    </contour>
    <component base="y"/>
  </outline>
</glyph>
<glyph name="uni0289" format="2">
  <advance width="597"/>
  <unicode hex="0289"/>
  <anchor x="299" y="0" name="bottom"/>
  <anchor x="299" y="536" name="top"/>
  <anchor x="517" y="536" name="topright"/>
  <outline>
    <contour>
      <point x="30" y="275" type="line"/>
      <point x="561" y="275" type="line"/>
      <point x="561" y="300" type="line"/>
      <point x="30" y="300" type="line"/>
    </contour>
    <component base="u"/>
  </outline>
</glyph>
<glyph name="uni048F" format="2">
  <advance width="574"/>
  <unicode hex="048F"/>
  <anchor x="287" y="-240" name="bottom"/>
  <anchor x="287" y="536" name="top"/>
  <anchor x="544" y="536" name="topright"/>
  <outline>
    <contour>
      <point x="476" y="-63" type="line"/>
      <point x="499" y="-47" type="line"/>
      <point x="359" y="159" type="line"/>
      <point x="336" y="143" type="line"/>
    </contour>
    <component base="p"/>
  </outline>
</glyph>
<glyph name="uni049E" format="2">
  <advance width="658"/>
  <unicode hex="049E"/>
  <anchor x="329" y="0" name="bottom"/>
  <anchor x="329" y="714" name="top"/>
  <outline>
    <contour>
      <point x="50" y="563" type="line"/>
      <point x="277" y="563" type="line"/>
      <point x="277" y="588" type="line"/>
      <point x="50" y="588" type="line"/>
    </contour>
    <component base="afii10028"/>
  </outline>
</glyph>
<glyph name="uni04B0" format="2">
  <advance width="539"/>
  <unicode hex="04B0"/>
  <anchor x="270" y="0" name="bottom"/>
  <anchor x="270" y="714" name="top"/>
  <anchor x="519" y="714" name="topright"/>
  <outline>
    <contour>
      <point x="126" y="223" type="line"/>
      <point x="429" y="223" type="line"/>
      <point x="429" y="248" type="line"/>
      <point x="126" y="248" type="line"/>
    </contour>
    <component base="Y"/>
  </outline>
</glyph>
<glyph name="uni04C5" format="2">
  <advance width="672"/>
  <unicode hex="04C5"/>
  <anchor x="336" y="0" name="bottom"/>
  <anchor x="336" y="714" name="top"/>
  <outline>
    <contour>
      <point x="510" y="-210" type="line"/>
      <point x="551" y="-210" type="line"/>
      <point x="620" y="3" type="line"/>
      <point x="620" y="20" type="line"/>
      <point x="595" y="20" type="line"/>
      <point x="595" y="0" type="line"/>
    </contour>
    <component base="afii10029"/>
  </outline>
</glyph>
<glyph name="uni04C6" format="2">
  <advance width="588"/>
  <unicode hex="04C6"/>
  <anchor x="294" y="0" name="bottom"/>
  <anchor x="294" y="536" name="top"/>
  <outline>
    <contour>
      <point x="447" y="-210" type="line"/>
      <point x="488" y="-210" type="line"/>
      <point x="557" y="3" type="line"/>
      <point x="557" y="20" type="line"/>
      <point x="532" y="20" type="line"/>
      <point x="532" y="0" type="line"/>
    </contour>
    <component base="afii10077"/>
  </outline>
</glyph>
<glyph name="uni04C9" format="2">
  <advance width="761"/>
  <unicode hex="04C9"/>
  <anchor x="381" y="0" name="bottom"/>
  <anchor x="381" y="714" name="top"/>
  <anchor x="381" y="357" name="center"/>
  <anchor x="741" y="714" name="topright"/>
  <outline>
    <contour>
      <point x="599" y="-210" type="line"/>
      <point x="640" y="-210" type="line"/>
      <point x="709" y="3" type="line"/>
      <point x="709" y="20" type="line"/>
      <point x="684" y="20" type="line"/>
      <point x="684" y="0" type="line"/>
    </contour>
    <component base="H"/>
  </outline>
</glyph>
<glyph name="uni04CA" format="2">
  <advance width="688"/>
  <unicode hex="04CA"/>
  <anchor x="344" y="0" name="bottom"/>
  <anchor x="344" y="536" name="top"/>
  <outline>
    <contour>
      <point x="547" y="-210" type="line"/>
      <point x="588" y="-210" type="line"/>
      <point x="657" y="3" type="line"/>
      <point x="657" y="20" type="line"/>
      <point x="632" y="20" type="line"/>
      <point x="632" y="0" type="line"/>
    </contour>
    <component base="afii10079"/>
  </outline>
</glyph>
<glyph name="uni04CD" format="2">
  <advance width="908"/>
  <unicode hex="04CD"/>
  <anchor x="454" y="0" name="bottom"/>
  <anchor x="454" y="714" name="top"/>
  <anchor x="888" y="714" name="topright"/>
  <outline>
    <contour>
      <point x="750" y="-210" type="line"/>
      <point x="791" y="-210" type="line"/>
      <point x="860" y="3" type="line"/>
      <point x="860" y="20" type="line"/>
      <point x="835" y="20" type="line"/>
      <point x="835" y="0" type="line"/>
    </contour>
    <component base="M"/>
  </outline>
</glyph>
<glyph name="uni04CE" format="2">
  <advance width="699"/>
  <unicode hex="04CE"/>
  <anchor x="350" y="0" name="bottom"/>
  <anchor x="350" y="536" name="top"/>
  <outline>
    <contour>
      <point x="547" y="-210" type="line"/>
      <point x="588" y="-210" type="line"/>
      <point x="657" y="3" type="line"/>
      <point x="657" y="20" type="line"/>
      <point x="632" y="20" type="line"/>
      <point x="632" y="0" type="line"/>
    </contour>
    <component base="afii10078"/>
  </outline>
</glyph>
<glyph name="uni04FE" format="2">
  <advance width="570"/>
  <unicode hex="04FE"/>
  <anchor x="285" y="0" name="bottom"/>
  <anchor x="285" y="714" name="top"/>
  <anchor x="550" y="714" name="topright"/>
  <outline>
    <contour>
      <point x="84" y="359" type="line"/>
      <point x="490" y="359" type="line"/>
      <point x="490" y="384" type="line"/>
      <point x="84" y="384" type="line"/>
    </contour>
    <component base="X"/>
  </outline>
</glyph>
<glyph name="uni051E" format="2">
  <advance width="658"/>
  <unicode hex="051E"/>
  <anchor x="329" y="0" name="bottom"/>
  <anchor x="329" y="714" name="top"/>
  <outline>
    <contour>
      <point x="473" y="436" type="line"/>
      <point x="488" y="458" type="line"/>
      <point x="261" y="610" type="line"/>
      <point x="246" y="586" type="line"/>
    </contour>
    <component base="afii10028"/>
  </outline>
</glyph>
<glyph name="uni051F" format="2">
  <advance width="549"/>
  <unicode hex="051F"/>
  <anchor x="275" y="0" name="bottom"/>
  <anchor x="275" y="536" name="top"/>
  <outline>
    <contour>
      <point x="443" y="318" type="line"/>
      <point x="456" y="339" type="line"/>
      <point x="260" y="465" type="line"/>
      <point x="246" y="444" type="line"/>
    </contour>
    <component base="afii10076"/>
  </outline>
</glyph>
<glyph name="uni1AB9" format="2">
  <unicode hex="1AB9"/>
  <anchor x="-394" y="64" name="_bottom"/>
  <anchor x="-394" y="-240" name="bottom"/>
  <outline>
    <contour>
      <point x="-432" y="-240" type="line"/>
      <point x="-332" y="26" type="line"/>
      <point x="-356" y="34" type="line"/>
      <point x="-456" y="-231" type="line"/>
    </contour>
  </outline>
</glyph>
<glyph name="uni1ABA" format="2">
  <unicode hex="1ABA"/>
  <anchor x="-413" y="64" name="_bottom"/>
  <anchor x="-413" y="-274" name="bottom"/>
  <outline>
    <contour>
      <point x="-432" y="-240" type="line"/>
      <point x="-332" y="26" type="line"/>
      <point x="-356" y="34" type="line"/>
      <point x="-456" y="-231" type="line"/>
    </contour>
    <contour>
      <point x="-446" y="-274" type="curve" smooth="yes"/>
      <point x="-419" y="-274"/>
      <point x="-399" y="-256"/>
      <point x="-399" y="-229" type="curve" smooth="yes"/>
      <point x="-399" y="-200"/>
      <point x="-419" y="-182"/>
      <point x="-446" y="-182" type="curve" smooth="yes"/>
      <point x="-473" y="-182"/>
      <point x="-493" y="-200"/>
      <point x="-493" y="-229" type="curve" smooth="yes"/>
      <point x="-493" y="-256"/>
      <point x="-473" y="-274"/>
    </contour>
  </outline>
</glyph>
<glyph name="uni1D03" format="2">
  <advance width="545"/>
  <unicode hex="1D03"/>
  <anchor x="248" y="0" name="bottom"/>
  <anchor x="248" y="536" name="top"/>
  <outline>
    <contour>
      <point x="47" y="261" type="line"/>
      <point x="523" y="261" type="line"/>
      <point x="523" y="286" type="line"/>
      <point x="47" y="286" type="line"/>
    </contour>
    <component base="afii10067"/>
  </outline>
</glyph>
<glyph name="uni1D09" format="2">
  <advance width="278"/>
  <unicode hex="1D09"/>
  <anchor x="139" y="-157" name="bottom"/>
  <anchor x="139" y="536" name="top"/>
  <outline>
    <contour>
      <point x="47" y="0" type="line"/>
      <point x="231" y="0" type="line"/>
      <point x="231" y="20" type="line"/>
      <point x="208" y="20" type="line" smooth="yes"/>
      <point x="157" y="20"/>
      <point x="154" y="24"/>
      <point x="154" y="94" type="curve" smooth="yes"/>
      <point x="154" y="442" type="line" smooth="yes"/>
      <point x="154" y="511"/>
      <point x="157" y="516"/>
      <point x="208" y="516" type="curve" smooth="yes"/>
      <point x="231" y="516" type="line"/>
      <point x="231" y="536" type="line"/>
      <point x="47" y="536" type="line"/>
      <point x="47" y="516" type="line"/>
      <point x="71" y="516" type="line" smooth="yes"/>
      <point x="122" y="516"/>
      <point x="126" y="511"/>
      <point x="126" y="442" type="curve" smooth="yes"/>
      <point x="126" y="94" type="line" smooth="yes"/>
      <point x="126" y="24"/>
      <point x="123" y="20"/>
      <point x="71" y="20" type="curve" smooth="yes"/>
      <point x="47" y="20" type="line"/>
    </contour>
    <contour>
      <point x="139" y="-157" type="curve" smooth="yes"/>
      <point x="154" y="-157"/>
      <point x="162" y="-149"/>
      <point x="162" y="-117" type="curve" smooth="yes"/>
      <point x="162" y="-86"/>
      <point x="154" y="-77"/>
      <point x="139" y="-77" type="curve" smooth="yes"/>
      <point x="125" y="-77"/>
      <point x="116" y="-86"/>
      <point x="116" y="-117" type="curve" smooth="yes"/>
      <point x="116" y="-149"/>
      <point x="125" y="-157"/>
    </contour>
  </outline>
</glyph>
<glyph name="uni1D24" format="2">
  <advance width="420"/>
  <unicode hex="1D24"/>
  <anchor x="210" y="0" name="bottom"/>
  <anchor x="210" y="536" name="top"/>
  <outline>
    <contour>
      <point x="223" y="-10" type="curve" smooth="yes"/>
      <point x="315" y="-10"/>
      <point x="381" y="43"/>
      <point x="381" y="65" type="curve" smooth="yes"/>
      <point x="381" y="72"/>
      <point x="379" y="79"/>
      <point x="367" y="85" type="curve"/>
      <point x="346" y="49"/>
      <point x="299" y="15"/>
      <point x="222" y="15" type="curve" smooth="yes"/>
      <point x="147" y="15"/>
      <point x="83" y="49"/>
      <point x="83" y="128" type="curve" smooth="yes"/>
      <point x="83" y="182"/>
      <point x="106" y="212"/>
      <point x="228" y="255" type="curve"/>
      <point x="228" y="274" type="line"/>
      <point x="320" y="311"/>
      <point x="365" y="338"/>
      <point x="365" y="425" type="curve" smooth="yes"/>
      <point x="365" y="484"/>
      <point x="321" y="542"/>
      <point x="224" y="542" type="curve" smooth="yes"/>
      <point x="131" y="542"/>
      <point x="90" y="486"/>
      <point x="90" y="449" type="curve" smooth="yes"/>
      <point x="90" y="422"/>
      <point x="104" y="404"/>
      <point x="114" y="404" type="curve"/>
      <point x="114" y="490"/>
      <point x="157" y="517"/>
      <point x="225" y="517" type="curve" smooth="yes"/>
      <point x="286" y="517"/>
      <point x="337" y="487"/>
      <point x="337" y="425" type="curve" smooth="yes"/>
      <point x="337" y="348"/>
      <point x="290" y="327"/>
      <point x="227" y="301" type="curve"/>
      <point x="227" y="281" type="line"/>
      <point x="119" y="242"/>
      <point x="55" y="205"/>
      <point x="55" y="128" type="curve" smooth="yes"/>
      <point x="55" y="34"/>
      <point x="125" y="-10"/>
    </contour>
  </outline>
</glyph>
<glyph name="uni1D7A" format="2">
  <advance width="904"/>
  <unicode hex="1D7A"/>
  <anchor x="163" y="0" name="bottom_1"/>
  <anchor x="596" y="0" name="bottom_2"/>
  <anchor x="143" y="268" name="center_1"/>
  <anchor x="596" y="268" name="center_2"/>
  <anchor x="114" y="657" name="top_1"/>
  <anchor x="596" y="760" name="top_2"/>
  <anchor x="236" y="657" name="topright_1"/>
  <anchor x="783" y="760" name="topright_2"/>
  <outline>
    <contour>
      <point x="6" y="-110" type="line"/>
      <point x="37" y="-110" type="line"/>
      <point x="686" y="760" type="line"/>
      <point x="653" y="760" type="line"/>
    </contour>
    <component base="t"/>
    <component base="h" xOffset="298"/>
  </outline>
</glyph>
<glyph name="uni1D7F" format="2">
  <advance width="531"/>
  <unicode hex="1D7F"/>
  <anchor x="265" y="0" name="bottom"/>
  <anchor x="265" y="536" name="top"/>
  <outline>
    <contour>
      <point x="29" y="264" type="line"/>
      <point x="502" y="264" type="line"/>
      <point x="502" y="289" type="line"/>
      <point x="29" y="289" type="line"/>
    </contour>
    <component base="uni028A"/>
  </outline>
</glyph>
<glyph name="uni1D88" format="2">
  <advance width="574"/>
  <unicode hex="1D88"/>
  <anchor x="287" y="-240" name="bottom"/>
  <anchor x="287" y="536" name="top"/>
  <anchor x="544" y="536" name="topright"/>
  <outline>
    <contour>
      <point x="398" y="-197" type="curve" smooth="yes"/>
      <point x="463" y="-197"/>
      <point x="476" y="-144"/>
      <point x="476" y="-97" type="curve"/>
      <point x="476" y="100" type="line"/>
      <point x="450" y="100" type="line"/>
      <point x="450" y="-91" type="line" smooth="yes"/>
      <point x="450" y="-153"/>
      <point x="432" y="-172"/>
      <point x="395" y="-172" type="curve" smooth="yes"/>
      <point x="370" y="-172"/>
      <point x="359" y="-155"/>
      <point x="353" y="-141" type="curve"/>
      <point x="343" y="-144"/>
      <point x="338" y="-151"/>
      <point x="338" y="-163" type="curve" smooth="yes"/>
      <point x="338" y="-183"/>
      <point x="365" y="-197"/>
    </contour>
    <component base="p"/>
  </outline>
</glyph>
<glyph name="uni1D8F" format="2">
  <advance width="517"/>
  <unicode hex="1D8F"/>
  <anchor x="259" y="0" name="bottom"/>
  <anchor x="259" y="536" name="top"/>
  <anchor x="497" y="536" name="topright"/>
  <outline>
    <contour>
      <point x="518" y="-197" type="curve" smooth="yes"/>
      <point x="551" y="-197"/>
      <point x="578" y="-183"/>
      <point x="578" y="-163" type="curve" smooth="yes"/>
      <point x="578" y="-151"/>
      <point x="573" y="-144"/>
      <point x="563" y="-141" type="curve"/>
      <point x="557" y="-155"/>
      <point x="546" y="-172"/>
      <point x="521" y="-172" type="curve" smooth="yes"/>
      <point x="484" y="-172"/>
      <point x="466" y="-153"/>
      <point x="466" y="-91" type="curve" smooth="yes"/>
      <point x="466" y="20" type="line"/>
      <point x="440" y="20" type="line"/>
      <point x="440" y="-97" type="line"/>
      <point x="440" y="-144"/>
      <point x="453" y="-197"/>
    </contour>
    <component base="a"/>
  </outline>
</glyph>
<glyph name="uni1D92" format="2">
  <advance width="489"/>
  <unicode hex="1D92"/>
  <anchor x="255" y="0" name="bottom"/>
  <anchor x="255" y="536" name="top"/>
  <anchor x="469" y="536" name="topright"/>
  <outline>
    <contour>
      <point x="472" y="-197" type="curve" smooth="yes"/>
      <point x="505" y="-197"/>
      <point x="532" y="-183"/>
      <point x="532" y="-163" type="curve" smooth="yes"/>
      <point x="532" y="-151"/>
      <point x="527" y="-144"/>
      <point x="517" y="-141" type="curve"/>
      <point x="511" y="-155"/>
      <point x="500" y="-172"/>
      <point x="475" y="-172" type="curve" smooth="yes"/>
      <point x="438" y="-172"/>
      <point x="420" y="-153"/>
      <point x="420" y="-91" type="curve" smooth="yes"/>
      <point x="420" y="85" type="line"/>
      <point x="394" y="58" type="line"/>
      <point x="394" y="-97" type="line" smooth="yes"/>
      <point x="394" y="-144"/>
      <point x="407" y="-197"/>
    </contour>
    <component base="e"/>
  </outline>
</glyph>
<glyph name="uni1FEF" format="2">
  <advance width="160"/>
  <unicode hex="1FEF"/>
  <anchor x="78" y="536" name="_top"/>
  <anchor x="78" y="760" name="top"/>
  <outline>
    <contour>
      <point x="110" y="626" type="curve"/>
      <point x="128" y="626" type="line"/>
      <point x="128" y="630" type="line"/>
      <point x="114" y="656"/>
      <point x="76" y="729"/>
      <point x="67" y="760" type="curve"/>
      <point x="28" y="760" type="line"/>
      <point x="28" y="752" type="line"/>
      <point x="38" y="733"/>
      <point x="88" y="654"/>
    </contour>
  </outline>
</glyph>
<glyph name="uni1FFD" format="2">
  <advance width="160"/>
  <unicode hex="1FFD"/>
  <anchor x="70" y="536" name="_top"/>
  <anchor x="70" y="760" name="top"/>
  <outline>
    <contour>
      <point x="20" y="626" type="line"/>
      <point x="38" y="626" type="line"/>
      <point x="60" y="654"/>
      <point x="110" y="733"/>
      <point x="120" y="752" type="curve"/>
      <point x="120" y="760" type="line"/>
      <point x="81" y="760" type="line"/>
      <point x="72" y="729"/>
      <point x="34" y="656"/>
      <point x="20" y="630" type="curve"/>
    </contour>
  </outline>
</glyph>
<glyph name="plussuperior" format="2">
  <advance width="385"/>
  <unicode hex="207A"/>
  <outline>
    <contour>
      <point x="177" y="330" type="line"/>
      <point x="205" y="330" type="line"/>
      <point x="205" y="469" type="line"/>
      <point x="344" y="469" type="line"/>
      <point x="344" y="494" type="line"/>
      <point x="205" y="494" type="line"/>
      <point x="205" y="633" type="line"/>
      <point x="177" y="633" type="line"/>
      <point x="177" y="494" type="line"/>
      <point x="39" y="494" type="line"/>
      <point x="39" y="469" type="line"/>
      <point x="177" y="469" type="line"/>
    </contour>
  </outline>
</glyph>
<glyph name="parenleftsuperior" format="2">
  <advance width="250"/>
  <unicode hex="207D"/>
  <outline>
    <contour>
      <point x="219" y="196" type="curve"/>
      <point x="219" y="221" type="line"/>
      <point x="84" y="276"/>
      <point x="73" y="369"/>
      <point x="73" y="491" type="curve" smooth="yes"/>
      <point x="73" y="613"/>
      <point x="84" y="717"/>
      <point x="219" y="762" type="curve"/>
      <point x="219" y="788" type="line"/>
      <point x="83" y="737"/>
      <point x="45" y="680"/>
      <point x="45" y="491" type="curve" smooth="yes"/>
      <point x="45" y="302"/>
      <point x="83" y="247"/>
    </contour>
  </outline>
</glyph>
<glyph name="parenrightsuperior" format="2">
  <advance width="250"/>
  <unicode hex="207E"/>
  <outline>
    <contour>
      <point x="31" y="196" type="line"/>
      <point x="167" y="247"/>
      <point x="205" y="308"/>
      <point x="205" y="491" type="curve" smooth="yes"/>
      <point x="205" y="674"/>
      <point x="167" y="737"/>
      <point x="31" y="788" type="curve"/>
      <point x="31" y="762" type="line"/>
      <point x="166" y="717"/>
      <point x="177" y="613"/>
      <point x="177" y="491" type="curve" smooth="yes"/>
      <point x="177" y="369"/>
      <point x="166" y="276"/>
      <point x="31" y="221" type="curve"/>
    </contour>
  </outline>
</glyph>
<glyph name="uni20A5" format="2">
  <advance width="891"/>
  <unicode hex="20A5"/>
  <anchor x="446" y="0" name="bottom"/>
  <anchor x="446" y="536" name="top"/>
  <anchor x="831" y="536" name="topright"/>
  <outline>
    <contour>
      <point x="248" y="-110" type="line"/>
      <point x="275" y="-110" type="line"/>
      <point x="599" y="666" type="line"/>
      <point x="570" y="666" type="line"/>
    </contour>
    <component base="m"/>
  </outline>
</glyph>
<glyph name="uni20A9" format="2">
  <advance width="1021"/>
  <unicode hex="20A9"/>
  <outline>
    <contour>
      <point x="300" y="0" type="line"/>
      <point x="328" y="0" type="line"/>
      <point x="406" y="294" type="line"/>
      <point x="601" y="294" type="line"/>
      <point x="676" y="0" type="line"/>
      <point x="704" y="0" type="line"/>
      <point x="797" y="294" type="line"/>
      <point x="961" y="294" type="line"/>
      <point x="961" y="320" type="line"/>
      <point x="805" y="320" type="line"/>
      <point x="835" y="415" type="line"/>
      <point x="961" y="415" type="line"/>
      <point x="961" y="441" type="line"/>
      <point x="844" y="441" type="line"/>
      <point x="900" y="618" type="line" smooth="yes"/>
      <point x="921" y="684"/>
      <point x="926" y="694"/>
      <point x="962" y="694" type="curve" smooth="yes"/>
      <point x="1002" y="694" type="line"/>
      <point x="1002" y="714" type="line"/>
      <point x="790" y="714" type="line"/>
      <point x="790" y="694" type="line"/>
      <point x="819" y="694" type="line" smooth="yes"/>
      <point x="861" y="694"/>
      <point x="880" y="693"/>
      <point x="880" y="665" type="curve" smooth="yes"/>
      <point x="880" y="652"/>
      <point x="875" y="632"/>
      <point x="863" y="595" type="curve" smooth="yes"/>
      <point x="814" y="441" type="line"/>
      <point x="591" y="441" type="line"/>
      <point x="520" y="714" type="line"/>
      <point x="492" y="714" type="line"/>
      <point x="417" y="441" type="line"/>
      <point x="198" y="441" type="line"/>
      <point x="141" y="633" type="line" smooth="yes"/>
      <point x="137" y="646"/>
      <point x="135" y="659"/>
      <point x="135" y="664" type="curve" smooth="yes"/>
      <point x="135" y="689"/>
      <point x="148" y="694"/>
      <point x="197" y="694" type="curve" smooth="yes"/>
      <point x="232" y="694" type="line"/>
      <point x="232" y="714" type="line"/>
      <point x="21" y="714" type="line"/>
      <point x="21" y="694" type="line"/>
      <point x="55" y="694" type="line" smooth="yes"/>
      <point x="88" y="694"/>
      <point x="96" y="687"/>
      <point x="109" y="643" type="curve" smooth="yes"/>
      <point x="169" y="441" type="line"/>
      <point x="54" y="441" type="line"/>
      <point x="54" y="415" type="line"/>
      <point x="176" y="415" type="line"/>
      <point x="205" y="320" type="line"/>
      <point x="54" y="320" type="line"/>
      <point x="54" y="294" type="line"/>
      <point x="212" y="294" type="line"/>
    </contour>
    <contour>
      <point x="314" y="40" type="line"/>
      <point x="241" y="294" type="line"/>
      <point x="377" y="294" type="line"/>
    </contour>
    <contour>
      <point x="234" y="320" type="line"/>
      <point x="206" y="415" type="line"/>
      <point x="410" y="415" type="line"/>
      <point x="384" y="320" type="line"/>
    </contour>
    <contour>
      <point x="693" y="41" type="line"/>
      <point x="628" y="294" type="line"/>
      <point x="769" y="294" type="line"/>
    </contour>
    <contour>
      <point x="413" y="320" type="line"/>
      <point x="438" y="415" type="line"/>
      <point x="570" y="415" type="line"/>
      <point x="594" y="320" type="line"/>
    </contour>
    <contour>
      <point x="445" y="441" type="line"/>
      <point x="505" y="669" type="line"/>
      <point x="563" y="441" type="line"/>
    </contour>
    <contour>
      <point x="622" y="320" type="line"/>
      <point x="597" y="415" type="line"/>
      <point x="806" y="415" type="line"/>
      <point x="777" y="320" type="line"/>
    </contour>
  </outline>
</glyph>
<glyph name="uni20AD" format="2">
  <advance width="658"/>
  <unicode hex="20AD"/>
  <anchor x="329" y="0" name="bottom"/>
  <anchor x="329" y="714" name="top"/>
  <anchor x="638" y="714" name="topright"/>
  <outline>
    <contour>
      <point x="66" y="362" type="line"/>
      <point x="567" y="362" type="line"/>
      <point x="567" y="388" type="line"/>
      <point x="66" y="388" type="line"/>
    </contour>
    <component base="K"/>
  </outline>
</glyph>
<glyph name="uni20B3" format="2">
  <advance width="645"/>
  <unicode hex="20B3"/>
  <anchor x="338" y="0" name="bottom"/>
  <anchor x="338" y="714" name="top"/>
  <outline>
    <contour>
      <point x="0" y="426" type="line"/>
      <point x="645" y="426" type="line"/>
      <point x="645" y="451" type="line"/>
      <point x="0" y="451" type="line"/>
    </contour>
    <contour>
      <point x="0" y="249" type="line"/>
      <point x="645" y="249" type="line"/>
      <point x="645" y="274" type="line"/>
      <point x="0" y="274" type="line"/>
    </contour>
    <component base="Lambda"/>
  </outline>
</glyph>
<glyph name="uni20B4" format="2">
  <advance width="490"/>
  <unicode hex="20B4"/>
  <anchor x="271" y="0" name="bottom"/>
  <anchor x="261" y="714" name="top"/>
  <anchor x="56" y="714" name="topright"/>
  <outline>
    <contour>
      <point x="30" y="427" type="line"/>
      <point x="514" y="427" type="line"/>
      <point x="514" y="452" type="line"/>
      <point x="30" y="452" type="line"/>
    </contour>
    <contour>
      <point x="30" y="287" type="line"/>
      <point x="514" y="287" type="line"/>
      <point x="514" y="312" type="line"/>
      <point x="30" y="312" type="line"/>
    </contour>
    <component base="S" xScale="-1" xOffset="526"/>
  </outline>
</glyph>
<glyph name="response" format="2">
  <advance width="592"/>
  <unicode hex="211F"/>
  <anchor x="296" y="0" name="bottom"/>
  <anchor x="296" y="714" name="top"/>
  <anchor x="572" y="714" name="topright"/>
  <outline>
    <contour>
      <point x="99" y="-121" type="line"/>
      <point x="125" y="-121" type="line"/>
      <point x="433" y="787" type="line"/>
      <point x="233" y="856" type="line"/>
      <point x="224" y="829" type="line"/>
      <point x="398" y="771" type="line"/>
    </contour>
    <component base="R"/>
  </outline>
</glyph>
<glyph name="versicle" format="2">
  <advance width="645"/>
  <unicode hex="2123"/>
  <anchor x="323" y="0" name="bottom"/>
  <anchor x="323" y="714" name="top"/>
  <anchor x="625" y="714" name="topright"/>
  <outline>
    <contour>
      <point x="99" y="-121" type="line"/>
      <point x="125" y="-121" type="line"/>
      <point x="433" y="787" type="line"/>
      <point x="233" y="856" type="line"/>
      <point x="224" y="829" type="line"/>
      <point x="398" y="771" type="line"/>
    </contour>
    <component base="V"/>
  </outline>
</glyph>
<glyph name="uni2C61" format="2">
  <advance width="256"/>
  <unicode hex="2C61"/>
  <anchor x="128" y="0" name="bottom"/>
  <anchor x="128" y="760" name="top"/>
  <anchor x="128" y="268" name="center"/>
  <anchor x="186" y="760" name="topright"/>
  <outline>
    <contour>
      <point x="10" y="416" type="line"/>
      <point x="246" y="416" type="line"/>
      <point x="246" y="441" type="line"/>
      <point x="10" y="441" type="line"/>
    </contour>
    <contour>
      <point x="10" y="299" type="line"/>
      <point x="246" y="299" type="line"/>
      <point x="246" y="324" type="line"/>
      <point x="10" y="324" type="line"/>
    </contour>
    <component base="l"/>
  </outline>
</glyph>
<glyph name="uniA643" format="2">
  <advance width="489"/>
  <unicode hex="A643"/>
  <outline>
    <contour>
      <point x="94" y="261" type="line"/>
      <point x="369" y="261" type="line"/>
      <point x="369" y="286" type="line"/>
      <point x="94" y="286" type="line"/>
    </contour>
    <component base="uniA641"/>
  </outline>
</glyph>
<glyph name="uniA741" format="2">
  <advance width="521"/>
  <unicode hex="A741"/>
  <anchor x="261" y="760" name="top"/>
  <anchor x="261" y="0" name="bottom"/>
  <anchor x="521" y="760" name="topright"/>
  <outline>
    <contour>
      <point x="21" y="615" type="line"/>
      <point x="267" y="615" type="line"/>
      <point x="267" y="640" type="line"/>
      <point x="21" y="640" type="line"/>
    </contour>
    <component base="k"/>
  </outline>
</glyph>
<glyph name="uniA743" format="2">
  <advance width="521"/>
  <unicode hex="A743"/>
  <anchor x="261" y="760" name="top"/>
  <anchor x="261" y="0" name="bottom"/>
  <anchor x="521" y="760" name="topright"/>
  <outline>
    <contour>
      <point x="248" y="109" type="line"/>
      <point x="453" y="258" type="line"/>
      <point x="437" y="278" type="line"/>
      <point x="233" y="129" type="line"/>
    </contour>
    <component base="k"/>
  </outline>
</glyph>
<glyph name="uniA749" format="2">
  <advance width="256"/>
  <unicode hex="A749"/>
  <anchor x="128" y="0" name="bottom"/>
  <anchor x="128" y="268" name="center"/>
  <anchor x="128" y="760" name="top"/>
  <anchor x="186" y="760" name="topright"/>
  <outline>
    <contour>
      <point x="17" y="612" type="line"/>
      <point x="231" y="612" type="line"/>
      <point x="231" y="637" type="line"/>
      <point x="17" y="637" type="line"/>
    </contour>
    <component base="l"/>
  </outline>
</glyph>
<glyph name="uniA750" format="2">
  <advance width="562"/>
  <unicode hex="A750"/>
  <anchor x="163" y="0" name="bottom"/>
  <anchor x="281" y="714" name="top"/>
  <anchor x="542" y="714" name="topright"/>
  <outline>
    <contour>
      <point x="50" y="150" type="line"/>
      <point x="283" y="150" type="line"/>
      <point x="283" y="175" type="line"/>
      <point x="50" y="175" type="line"/>
    </contour>
    <component base="P"/>
  </outline>
</glyph>
<glyph name="uniA753" format="2">
  <advance width="710"/>
  <unicode hex="A753"/>
  <anchor x="423" y="-240" name="bottom"/>
  <anchor x="423" y="536" name="top"/>
  <anchor x="680" y="536" name="topright"/>
  <outline>
    <contour>
      <point x="63" y="41" type="curve" smooth="yes"/>
      <point x="82" y="41"/>
      <point x="93" y="49"/>
      <point x="97" y="62" type="curve"/>
      <point x="59" y="62"/>
      <point x="32" y="85"/>
      <point x="32" y="129" type="curve" smooth="yes"/>
      <point x="32" y="180"/>
      <point x="70" y="219"/>
      <point x="129" y="219" type="curve" smooth="yes"/>
      <point x="188" y="219"/>
      <point x="226" y="186"/>
      <point x="265" y="136" type="curve"/>
      <point x="265" y="172" type="line"/>
      <point x="239" y="207"/>
      <point x="195" y="244"/>
      <point x="136" y="244" type="curve" smooth="yes"/>
      <point x="54" y="244"/>
      <point x="4" y="192"/>
      <point x="4" y="120" type="curve" smooth="yes"/>
      <point x="4" y="67"/>
      <point x="36" y="41"/>
    </contour>
    <component base="p" xOffset="136"/>
  </outline>
</glyph>
<glyph name="uniA757" format="2">
  <advance width="572"/>
  <unicode hex="A757"/>
  <anchor x="286" y="-240" name="bottom"/>
  <anchor x="286" y="536" name="top"/>
  <anchor x="552" y="536" name="topright"/>
  <outline>
    <contour>
      <point x="306" y="-117" type="line"/>
      <point x="532" y="-117" type="line"/>
      <point x="532" y="-92" type="line"/>
      <point x="306" y="-92" type="line"/>
    </contour>
    <component base="q"/>
  </outline>
</glyph>
<glyph name="uniA75E" format="2">
  <advance width="645"/>
  <unicode hex="A75E"/>
  <anchor x="323" y="0" name="bottom"/>
  <anchor x="323" y="714" name="top"/>
  <anchor x="625" y="714" name="topright"/>
  <outline>
    <contour>
      <point x="120" y="0" type="line"/>
      <point x="148" y="0" type="line"/>
      <point x="392" y="714" type="line"/>
      <point x="364" y="714" type="line"/>
    </contour>
    <component base="V"/>
  </outline>
</glyph>
<glyph name="uniA75F" format="2">
  <advance width="545"/>
  <unicode hex="A75F"/>
  <anchor x="273" y="0" name="bottom"/>
  <anchor x="273" y="536" name="top"/>
  <anchor x="535" y="536" name="topright"/>
  <outline>
    <contour>
      <point x="97" y="-50" type="line"/>
      <point x="124" y="-50" type="line"/>
      <point x="363" y="596" type="line"/>
      <point x="335" y="596" type="line"/>
    </contour>
    <component base="v"/>
  </outline>
</glyph>
<glyph name="uniA764" format="2">
  <advance width="562"/>
  <unicode hex="A764"/>
  <outline>
    <contour>
      <point x="50" y="0" type="line"/>
      <point x="293" y="0" type="line"/>
      <point x="293" y="20" type="line"/>
      <point x="231" y="20" type="line" smooth="yes"/>
      <point x="184" y="20"/>
      <point x="177" y="31"/>
      <point x="177" y="108" type="curve" smooth="yes"/>
      <point x="177" y="160" type="line"/>
      <point x="277" y="160" type="line" smooth="yes"/>
      <point x="452" y="160"/>
      <point x="511" y="244"/>
      <point x="511" y="352" type="curve" smooth="yes"/>
      <point x="511" y="462"/>
      <point x="449" y="526"/>
      <point x="299" y="526" type="curve" smooth="yes"/>
      <point x="177" y="526" type="line"/>
      <point x="177" y="595" type="line"/>
      <point x="297" y="595" type="line"/>
      <point x="297" y="620" type="line"/>
      <point x="177" y="620" type="line"/>
      <point x="177" y="683"/>
      <point x="187" y="694"/>
      <point x="235" y="694" type="curve" smooth="yes"/>
      <point x="273" y="694" type="line"/>
      <point x="273" y="714" type="line"/>
      <point x="50" y="714" type="line"/>
      <point x="50" y="694" type="line"/>
      <point x="94" y="694" type="line" smooth="yes"/>
      <point x="140" y="694"/>
      <point x="148" y="683"/>
      <point x="149" y="620" type="curve"/>
      <point x="50" y="620" type="line"/>
      <point x="50" y="595" type="line"/>
      <point x="149" y="595" type="line"/>
      <point x="149" y="108" type="line" smooth="yes"/>
      <point x="149" y="31"/>
      <point x="142" y="20"/>
      <point x="95" y="20" type="curve" smooth="yes"/>
      <point x="50" y="20" type="line"/>
    </contour>
    <contour>
      <point x="177" y="185" type="line"/>
      <point x="177" y="501" type="line"/>
      <point x="299" y="501" type="line" smooth="yes"/>
      <point x="430" y="501"/>
      <point x="483" y="447"/>
      <point x="483" y="351" type="curve" smooth="yes"/>
      <point x="483" y="262"/>
      <point x="438" y="185"/>
      <point x="276" y="185" type="curve" smooth="yes"/>
    </contour>
  </outline>
</glyph>
<glyph name="uniA765" format="2">
  <advance width="574"/>
  <unicode hex="A765"/>
  <anchor x="287" y="-240" name="bottom"/>
  <anchor x="287" y="760" name="top"/>
  <outline>
    <contour>
      <point x="29" y="613" type="line"/>
      <point x="275" y="613" type="line"/>
      <point x="275" y="638" type="line"/>
      <point x="29" y="638" type="line"/>
    </contour>
    <component base="thorn"/>
  </outline>
</glyph>
<glyph name="uniA7A0" format="2">
  <advance width="644"/>
  <unicode hex="A7A0"/>
  <anchor x="372" y="0" name="bottom"/>
  <anchor x="382" y="714" name="top"/>
  <anchor x="624" y="714" name="topright"/>
  <outline>
    <contour>
      <point x="-5" y="231" type="line"/>
      <point x="653" y="379" type="line"/>
      <point x="653" y="404" type="line"/>
      <point x="-5" y="256" type="line"/>
    </contour>
    <component base="G"/>
  </outline>
</glyph>
<glyph name="uniA7A3" format="2">
  <advance width="521"/>
  <unicode hex="A7A3"/>
  <anchor x="261" y="760" name="top"/>
  <anchor x="261" y="0" name="bottom"/>
  <anchor x="521" y="760" name="topright"/>
  <outline>
    <contour>
      <point x="22" y="102" type="line"/>
      <point x="480" y="190" type="line"/>
      <point x="480" y="214" type="line"/>
      <point x="22" y="126" type="line"/>
    </contour>
    <component base="k"/>
  </outline>
</glyph>
<glyph name="uniA7A5" format="2">
  <advance width="617"/>
  <unicode hex="A7A5"/>
  <anchor x="309" y="0" name="bottom"/>
  <anchor x="309" y="536" name="top"/>
  <anchor x="557" y="536" name="topright"/>
  <outline>
    <contour>
      <point x="38" y="195" type="line"/>
      <point x="597" y="301" type="line"/>
      <point x="597" y="325" type="line"/>
      <point x="38" y="219" type="line"/>
    </contour>
    <component base="n"/>
  </outline>
</glyph>
<glyph name="uniA7A7" format="2">
  <advance width="405"/>
  <unicode hex="A7A7"/>
  <anchor x="153" y="0" name="bottom"/>
  <anchor x="243" y="536" name="top"/>
  <anchor x="385" y="536" name="topright"/>
  <outline>
    <contour>
      <point x="48" y="201" type="line"/>
      <point x="299" y="253" type="line"/>
      <point x="299" y="278" type="line"/>
      <point x="48" y="226" type="line"/>
    </contour>
    <component base="r"/>
  </outline>
</glyph>
<glyph name="uniA7A8" format="2">
  <advance width="490"/>
  <unicode hex="A7A8"/>
  <anchor x="255" y="0" name="bottom"/>
  <anchor x="265" y="714" name="top"/>
  <anchor x="470" y="714" name="topright"/>
  <outline>
    <contour>
      <point x="72" y="309" type="line"/>
      <point x="460" y="395" type="line"/>
      <point x="460" y="420" type="line"/>
      <point x="72" y="334" type="line"/>
    </contour>
    <component base="S"/>
  </outline>
</glyph>
<glyph name="uniA7AE" format="2">
  <advance width="513"/>
  <unicode hex="A7AE"/>
  <outline>
    <contour>
      <point x="41" y="0" type="line"/>
      <point x="472" y="0" type="line"/>
      <point x="478" y="146" type="line"/>
      <point x="458" y="146" type="line"/>
      <point x="453" y="81" type="line" smooth="yes"/>
      <point x="449" y="32"/>
      <point x="434" y="25"/>
      <point x="395" y="25" type="curve" smooth="yes"/>
      <point x="271" y="25" type="line"/>
      <point x="271" y="511" type="line"/>
      <point x="393" y="511" type="line" smooth="yes"/>
      <point x="434" y="511"/>
      <point x="449" y="505"/>
      <point x="453" y="453" type="curve" smooth="yes"/>
      <point x="458" y="390" type="line"/>
      <point x="478" y="390" type="line"/>
      <point x="472" y="536" type="line"/>
      <point x="41" y="536" type="line"/>
      <point x="35" y="390" type="line"/>
      <point x="55" y="390" type="line"/>
      <point x="60" y="453" type="line" smooth="yes"/>
      <point x="65" y="506"/>
      <point x="80" y="511"/>
      <point x="119" y="511" type="curve" smooth="yes"/>
      <point x="243" y="511" type="line"/>
      <point x="243" y="25" type="line"/>
      <point x="113" y="25" type="line" smooth="yes"/>
      <point x="81" y="25"/>
      <point x="64" y="31"/>
      <point x="60" y="81" type="curve" smooth="yes"/>
      <point x="55" y="146" type="line"/>
      <point x="35" y="146" type="line"/>
    </contour>
  </outline>
</glyph>
<glyph name="uniA7FF" format="2">
  <advance width="1073"/>
  <unicode hex="A7FF"/>
  <outline>
    <contour>
      <point x="16" y="0" type="line"/>
      <point x="188" y="0" type="line"/>
      <point x="188" y="20" type="line"/>
      <point x="157" y="20" type="line" smooth="yes"/>
      <point x="121" y="20"/>
      <point x="117" y="23"/>
      <point x="117" y="39" type="curve" smooth="yes"/>
      <point x="117" y="58"/>
      <point x="133" y="101"/>
      <point x="144" y="131" type="curve" smooth="yes"/>
      <point x="218" y="337" type="line" smooth="yes"/>
      <point x="239" y="396"/>
      <point x="265" y="471"/>
      <point x="276" y="508" type="curve"/>
      <point x="279" y="508" type="line"/>
      <point x="293" y="458"/>
      <point x="307" y="409"/>
      <point x="320" y="362" type="curve" smooth="yes"/>
      <point x="424" y="0" type="line"/>
      <point x="457" y="0" type="line"/>
      <point x="631" y="511" type="line"/>
      <point x="808" y="0" type="line"/>
      <point x="844" y="0" type="line"/>
      <point x="981" y="438" type="line" smooth="yes"/>
      <point x="1002" y="506"/>
      <point x="1008" y="516"/>
      <point x="1042" y="516" type="curve" smooth="yes"/>
      <point x="1070" y="516" type="line"/>
      <point x="1070" y="536" type="line"/>
      <point x="894" y="536" type="line"/>
      <point x="894" y="516" type="line"/>
      <point x="925" y="516" type="line" smooth="yes"/>
      <point x="954" y="516"/>
      <point x="968" y="514"/>
      <point x="968" y="497" type="curve" smooth="yes"/>
      <point x="968" y="482"/>
      <point x="955" y="432"/>
      <point x="947" y="408" type="curve" smooth="yes"/>
      <point x="882" y="205" type="line" smooth="yes"/>
      <point x="856" y="124"/>
      <point x="834" y="56"/>
      <point x="827" y="23" type="curve"/>
      <point x="824" y="23" type="line"/>
      <point x="815" y="61"/>
      <point x="774" y="175"/>
      <point x="757" y="223" type="curve" smooth="yes"/>
      <point x="649" y="536" type="line"/>
      <point x="614" y="536" type="line"/>
      <point x="500" y="206" type="line" smooth="yes"/>
      <point x="483" y="157"/>
      <point x="449" y="60"/>
      <point x="443" y="27" type="curve"/>
      <point x="440" y="27" type="line"/>
      <point x="434" y="60"/>
      <point x="409" y="152"/>
      <point x="395" y="200" type="curve" smooth="yes"/>
      <point x="294" y="536" type="line"/>
      <point x="263" y="536" type="line"/>
      <point x="91" y="57" type="line" smooth="yes"/>
      <point x="79" y="24"/>
      <point x="72" y="20"/>
      <point x="40" y="20" type="curve" smooth="yes"/>
      <point x="16" y="20" type="line"/>
    </contour>
  </outline>
</glyph>
<glyph name="uniAB3F" format="2">
  <advance width="448"/>
  <unicode hex="AB3F"/>
  <anchor x="194" y="527" name="bottom"/>
  <anchor x="194" y="-9" name="top"/>
  <anchor x="20" y="-9" name="topright"/>
  <outline>
    <contour>
      <point x="4" y="-40" type="line"/>
      <point x="32" y="-40" type="line"/>
      <point x="405" y="576" type="line"/>
      <point x="374" y="576" type="line"/>
    </contour>
    <component base="c" xScale="-1" yScale="-1" xOffset="448" yOffset="527"/>
  </outline>
</glyph>
<glyph name="uniAB44" format="2">
  <advance width="856"/>
  <unicode hex="AB44"/>
  <outline>
    <contour>
      <point x="400" y="-40" type="line"/>
      <point x="431" y="-40" type="line"/>
      <point x="810" y="576" type="line"/>
      <point x="780" y="576" type="line"/>
    </contour>
    <component base="uniAB43"/>
  </outline>
</glyph>
<glyph name="uniAB60" format="2">
  <advance width="858"/>
  <unicode hex="AB60"/>
  <outline>
    <contour>
      <point x="346" y="0" type="line"/>
      <point x="623" y="0" type="line" smooth="yes"/>
      <point x="743" y="0"/>
      <point x="801" y="58"/>
      <point x="801" y="158" type="curve" smooth="yes"/>
      <point x="801" y="266"/>
      <point x="721" y="290"/>
      <point x="616" y="290" type="curve" smooth="yes"/>
      <point x="480" y="290" type="line"/>
      <point x="480" y="442" type="line" smooth="yes"/>
      <point x="480" y="511"/>
      <point x="483" y="516"/>
      <point x="542" y="516" type="curve" smooth="yes"/>
      <point x="574" y="516" type="line"/>
      <point x="574" y="536" type="line"/>
      <point x="346" y="536" type="line"/>
      <point x="346" y="516" type="line"/>
      <point x="375" y="516" type="line" smooth="yes"/>
      <point x="447" y="516"/>
      <point x="452" y="511"/>
      <point x="452" y="442" type="curve" smooth="yes"/>
      <point x="452" y="94" type="line" smooth="yes"/>
      <point x="452" y="24"/>
      <point x="450" y="20"/>
      <point x="375" y="20" type="curve" smooth="yes"/>
      <point x="346" y="20" type="line"/>
    </contour>
    <contour>
      <point x="55" y="0" type="line"/>
      <point x="257" y="0" type="line"/>
      <point x="257" y="20" type="line"/>
      <point x="233" y="20" type="line" smooth="yes"/>
      <point x="172" y="20"/>
      <point x="166" y="24"/>
      <point x="166" y="94" type="curve" smooth="yes"/>
      <point x="166" y="442" type="line" smooth="yes"/>
      <point x="166" y="511"/>
      <point x="172" y="516"/>
      <point x="238" y="516" type="curve" smooth="yes"/>
      <point x="257" y="516" type="line"/>
      <point x="257" y="536" type="line"/>
      <point x="55" y="536" type="line"/>
      <point x="55" y="516" type="line"/>
      <point x="80" y="516" type="line" smooth="yes"/>
      <point x="129" y="516"/>
      <point x="138" y="511"/>
      <point x="138" y="442" type="curve" smooth="yes"/>
      <point x="138" y="94" type="line"/>
      <point x="138" y="24"/>
      <point x="131" y="20"/>
      <point x="80" y="20" type="curve" smooth="yes"/>
      <point x="55" y="20" type="line"/>
    </contour>
    <contour>
      <point x="480" y="25" type="line"/>
      <point x="480" y="265" type="line"/>
      <point x="613" y="265" type="line" smooth="yes"/>
      <point x="727" y="265"/>
      <point x="773" y="232"/>
      <point x="773" y="158" type="curve" smooth="yes"/>
      <point x="773" y="67"/>
      <point x="730" y="25"/>
      <point x="596" y="25" type="curve" smooth="yes"/>
    </contour>
  </outline>
</glyph>
<glyph name="uniFE20" format="2">
  <unicode hex="FE20"/>
  <anchor x="2" y="536" name="_top"/>
  <outline>
    <contour>
      <point x="-386" y="593" type="curve"/>
      <point x="-366" y="593" type="line"/>
      <point x="-290" y="683"/>
      <point x="-184" y="738"/>
      <point x="2" y="738" type="curve"/>
      <point x="2" y="763" type="line"/>
      <point x="-14" y="763" type="line" smooth="yes"/>
      <point x="-167" y="763"/>
      <point x="-292" y="726"/>
    </contour>
  </outline>
</glyph>
<glyph name="uniFE21" format="2">
  <unicode hex="FE21"/>
  <anchor x="-1" y="536" name="_top"/>
  <outline>
    <contour>
      <point x="367" y="593" type="curve"/>
      <point x="387" y="593" type="line"/>
      <point x="293" y="726"/>
      <point x="168" y="763"/>
      <point x="15" y="763" type="curve" smooth="yes"/>
      <point x="-1" y="763" type="line"/>
      <point x="-1" y="738" type="line"/>
      <point x="185" y="738"/>
      <point x="291" y="683"/>
    </contour>
  </outline>
</glyph>
<glyph name="uniFE22" format="2">
  <unicode hex="FE22"/>
  <anchor x="3" y="536" name="_top"/>
  <outline>
    <contour>
      <point x="-384" y="600" type="curve"/>
      <point x="-364" y="600" type="line"/>
      <point x="-341" y="658"/>
      <point x="-294" y="685"/>
      <point x="-228" y="685" type="curve" smooth="yes"/>
      <point x="-151" y="685"/>
      <point x="-72" y="667"/>
      <point x="3" y="645" type="curve"/>
      <point x="3" y="670" type="line"/>
      <point x="-52" y="686"/>
      <point x="-141" y="709"/>
      <point x="-228" y="709" type="curve" smooth="yes"/>
      <point x="-294" y="709"/>
      <point x="-364" y="676"/>
    </contour>
  </outline>
</glyph>
<glyph name="uniFE23" format="2">
  <unicode hex="FE23"/>
  <anchor x="-3" y="536" name="_top"/>
  <outline>
    <contour>
      <point x="228" y="597" type="curve" smooth="yes"/>
      <point x="294" y="597"/>
      <point x="364" y="630"/>
      <point x="384" y="706" type="curve"/>
      <point x="364" y="706" type="line"/>
      <point x="341" y="648"/>
      <point x="294" y="621"/>
      <point x="228" y="621" type="curve" smooth="yes"/>
      <point x="151" y="621"/>
      <point x="72" y="639"/>
      <point x="-3" y="661" type="curve"/>
      <point x="-3" y="636" type="line"/>
      <point x="52" y="620"/>
      <point x="141" y="597"/>
    </contour>
  </outline>
</glyph>
<glyph name="uniFE27" format="2">
  <unicode hex="FE27"/>
  <anchor x="0" y="0" name="_bottom"/>
  <anchor x="-179" y="536" name="braceleft"/>
  <outline>
    <contour>
      <point x="0" y="-199" type="curve"/>
      <point x="0" y="-174" type="line"/>
      <point x="-172" y="-174"/>
      <point x="-274" y="-108"/>
      <point x="-333" y="-26" type="curve"/>
      <point x="-357" y="-26" type="line"/>
      <point x="-289" y="-143"/>
      <point x="-172" y="-199"/>
    </contour>
  </outline>
</glyph>
<glyph name="uniFE29" format="2">
  <unicode hex="FE29"/>
  <anchor x="0" y="0" name="_bottom"/>
  <anchor x="-183" y="536" name="braceleft"/>
  <outline>
    <contour>
      <point x="-366" y="-188" type="curve"/>
      <point x="-338" y="-188" type="line"/>
      <point x="-329" y="-158"/>
      <point x="-313" y="-137"/>
      <point x="-293" y="-123" type="curve" smooth="yes"/>
      <point x="-268" y="-106"/>
      <point x="-236" y="-100"/>
      <point x="-202" y="-100" type="curve" smooth="yes"/>
      <point x="-149" y="-100"/>
      <point x="-85" y="-113"/>
      <point x="0" y="-138" type="curve"/>
      <point x="0" y="-113" type="line"/>
      <point x="-69" y="-93"/>
      <point x="-137" y="-75"/>
      <point x="-199" y="-75" type="curve" smooth="yes"/>
      <point x="-288" y="-75"/>
      <point x="-349" y="-117"/>
    </contour>
  </outline>
</glyph>
<glyph name="uniFE2A" format="2">
  <unicode hex="FE2A"/>
  <anchor x="0" y="0" name="_bottom"/>
  <anchor x="183" y="536" name="braceleft"/>
  <outline>
    <contour>
      <point x="199" y="-187" type="curve" smooth="yes"/>
      <point x="288" y="-187"/>
      <point x="349" y="-145"/>
      <point x="366" y="-74" type="curve"/>
      <point x="338" y="-74" type="line"/>
      <point x="329" y="-104"/>
      <point x="313" y="-125"/>
      <point x="293" y="-139" type="curve" smooth="yes"/>
      <point x="268" y="-156"/>
      <point x="236" y="-162"/>
      <point x="202" y="-162" type="curve" smooth="yes"/>
      <point x="149" y="-162"/>
      <point x="85" y="-149"/>
      <point x="0" y="-124" type="curve"/>
      <point x="0" y="-149" type="line"/>
      <point x="62" y="-168"/>
      <point x="139" y="-187"/>
    </contour>
  </outline>
</glyph>
<glyph name="uniFE2C" format="2">
  <unicode hex="FE2C"/>
  <anchor x="0" y="0" name="_bottom"/>
  <anchor x="-181" y="536" name="braceleft"/>
  <outline>
    <contour>
      <point x="-361" y="-185" type="line"/>
      <point x="0" y="-185" type="line"/>
      <point x="0" y="-160" type="line"/>
      <point x="-361" y="-160" type="line"/>
    </contour>
  </outline>
</glyph>
<glyph name="uniFE2E" format="2">
  <unicode hex="FE2E"/>
  <anchor x="-100" y="536" name="_top"/>
  <outline>
    <contour>
      <point x="-100" y="585" type="curve" smooth="yes"/>
      <point x="-80" y="585"/>
      <point x="-67" y="602"/>
      <point x="-67" y="634" type="curve"/>
      <point x="130" y="634" type="line"/>
      <point x="130" y="657" type="line"/>
      <point x="-97" y="657" type="line" smooth="yes"/>
      <point x="-118" y="657"/>
      <point x="-130" y="641"/>
      <point x="-130" y="619" type="curve" smooth="yes"/>
      <point x="-130" y="596"/>
      <point x="-117" y="585"/>
    </contour>
  </outline>
</glyph>
<glyph name="uniFE2F" format="2">
  <unicode hex="FE2F"/>
  <anchor x="100" y="536" name="_top"/>
  <outline>
    <contour>
      <point x="-130" y="634" type="line"/>
      <point x="97" y="634" type="line" smooth="yes"/>
      <point x="118" y="634"/>
      <point x="130" y="650"/>
      <point x="130" y="672" type="curve" smooth="yes"/>
      <point x="130" y="695"/>
      <point x="117" y="706"/>
      <point x="100" y="706" type="curve" smooth="yes"/>
      <point x="80" y="706"/>
      <point x="67" y="689"/>
      <point x="67" y="657" type="curve"/>
      <point x="-130" y="657" type="line"/>
    </contour>
  </outline>
</glyph>
<glyph name="eth.sc" format="2">
  <advance width="587"/>
  <anchor x="294" y="0" name="bottom"/>
  <anchor x="294" y="571" name="top"/>
  <anchor x="294" y="286" name="center"/>
  <anchor x="567" y="571" name="topright"/>
  <outline>
    <contour>
      <point x="49" y="277" type="line"/>
      <point x="301" y="277" type="line"/>
      <point x="301" y="305" type="line"/>
      <point x="49" y="305" type="line"/>
    </contour>
    <component base="d.sc"/>
  </outline>
</glyph>
<glyph name="lslash.sc" format="2">
  <advance width="480"/>
  <anchor x="240" y="0" name="bottom"/>
  <anchor x="240" y="571" name="top"/>
  <anchor x="240" y="286" name="center"/>
  <anchor x="460" y="571" name="topright"/>
  <outline>
    <contour>
      <point x="48" y="192" type="line"/>
      <point x="303" y="334" type="line"/>
      <point x="303" y="362" type="line"/>
      <point x="48" y="218" type="line"/>
    </contour>
    <component base="l.sc"/>
  </outline>
</glyph>
<glyph name="tbar.sc" format="2">
  <advance width="477"/>
  <anchor x="239" y="0" name="bottom"/>
  <anchor x="239" y="571" name="top"/>
  <anchor x="239" y="286" name="center"/>
  <anchor x="457" y="571" name="topright"/>
  <outline>
    <contour>
      <point x="98" y="270" type="line"/>
      <point x="379" y="270" type="line"/>
      <point x="379" y="295" type="line"/>
      <point x="98" y="295" type="line"/>
    </contour>
    <component base="t.sc"/>
  </outline>
</glyph>
<glyph name="zero.slash" format="2">
  <advance width="559"/>
  <outline>
    <contour>
      <point x="96" y="166" type="line"/>
      <point x="474" y="544" type="line"/>
      <point x="457" y="561" type="line"/>
      <point x="79" y="183" type="line"/>
    </contour>
    <component base="zero"/>
  </outline>
</glyph>
